<?xml version="1.0" encoding="utf-8"?>
<!-- Generator: Adobe Illustrator 16.0.0, SVG Export Plug-In . SVG Version: 6.00 Build 0)  -->
<!DOCTYPE svg PUBLIC "-//W3C//DTD SVG 1.1//EN" "http://www.w3.org/Graphics/SVG/1.1/DTD/svg11.dtd">
<svg version="1.1" id="Calque_1" xmlns="http://www.w3.org/2000/svg" xmlns:xlink="http://www.w3.org/1999/xlink" x="0px" y="0px"
	 width="16px" height="16px" viewBox="0 0 16 16" enable-background="new 0 0 16 16" xml:space="preserve">
<path id="recent" d="M15.29,1.291H6.013c-0.463,0-1.083,0.257-1.375,0.616L0.22,7.327c-0.293,0.359-0.293,0.94,0,1.3l4.418,5.432
	c0.293,0.361,0.912,0.65,1.375,0.65h9.277c0.464,0,0.71-0.379,0.71-0.844V2.059C16,1.595,15.754,1.291,15.29,1.291z M13.033,9.838
	l-1.603,1.604L9.598,9.609l-1.833,1.832L6.161,9.838l1.833-1.833L6.047,6.058L7.65,4.455l1.947,1.947l1.946-1.947l1.604,1.604
	l-1.946,1.947L13.033,9.838z"/>
</svg>
