<?xml version="1.0" encoding="utf-8"?>
<!-- Generator: Adobe Illustrator 16.0.0, SVG Export Plug-In . SVG Version: 6.00 Build 0)  -->
<!DOCTYPE svg PUBLIC "-//W3C//DTD SVG 1.1//EN" "http://www.w3.org/Graphics/SVG/1.1/DTD/svg11.dtd">
<svg version="1.1" id="Calque_1" xmlns="http://www.w3.org/2000/svg" xmlns:xlink="http://www.w3.org/1999/xlink" x="0px" y="0px"
	 width="16px" height="16px" viewBox="0 0 16 16" enable-background="new 0 0 16 16" xml:space="preserve">
<path id="recent" d="M15.472,5.688c0.078-0.047,0.109-0.156,0.109-0.227c0-0.078-0.055-0.188-0.109-0.234
	c-0.047-0.055-1.109-0.828-2.812-0.828c-0.625,0-1.219,0.078-1.836,0.281c0-2.945-1.891-4.211-1.969-4.266
	c-0.078-0.023-0.18-0.047-0.258-0.023c-0.102,0-0.156,0.078-0.18,0.156L8.003,1.532L7.589,0.548C7.565,0.47,7.511,0.392,7.409,0.392
	c-0.078-0.023-0.18,0-0.258,0.023C7.073,0.47,5.183,1.735,5.183,4.681C4.565,4.478,3.972,4.399,3.347,4.399
	c-1.703,0-2.765,0.773-2.812,0.828C0.48,5.274,0.425,5.384,0.425,5.462c0,0.07,0.031,0.18,0.109,0.227l0.797,0.703L0.3,6.47
	c-0.133,0-0.18,0.023-0.258,0.125C0.011,6.649-0.012,6.751,0.011,6.853c0.031,0.078,0.648,2.25,3.468,3.18
	c-1.734,2.351-0.984,4.499-0.93,4.577c0.023,0.102,0.078,0.156,0.18,0.18c0.078,0.031,0.18,0.031,0.258-0.023l0.875-0.547
	l-0.227,1.016c-0.031,0.102,0,0.203,0.047,0.258c0.055,0.078,0.156,0.125,0.234,0.125h0.055c0.383,0,2.43-0.102,4.031-2.297
	c1.602,2.195,3.648,2.297,4.031,2.297h0.055c0.078,0,0.18-0.047,0.234-0.125c0.047-0.055,0.078-0.156,0.047-0.258l-0.227-1.016
	l0.875,0.547c0.078,0.055,0.18,0.055,0.258,0.023c0.102-0.023,0.156-0.078,0.18-0.18c0.055-0.078,0.805-2.227-0.93-4.577
	c2.82-0.93,3.438-3.102,3.469-3.18c0.023-0.102,0-0.203-0.031-0.258c-0.078-0.102-0.156-0.125-0.258-0.125l-1.031-0.078
	L15.472,5.688z M9.894,8.532c0,0.547-0.266,1.062-0.648,1.398l0.492,0.671c0.336-0.102,0.695-0.023,0.875,0.289
	c0.258,0.305,0.18,0.773-0.156,1.031c-0.336,0.234-0.797,0.18-1.055-0.156c-0.18-0.281-0.18-0.672,0.023-0.93l-0.492-0.671
	c-0.281,0.156-0.594,0.258-0.93,0.258c-0.359,0-0.648-0.102-0.93-0.258l-0.492,0.671c0.203,0.281,0.203,0.648,0.023,0.93
	c-0.258,0.336-0.719,0.391-1.055,0.156c-0.336-0.258-0.414-0.727-0.156-1.031c0.18-0.312,0.539-0.391,0.875-0.289l0.469-0.671
	C6.378,9.595,6.112,9.079,6.112,8.532c0-0.125,0.031-0.258,0.055-0.383L5.362,7.892c-0.18,0.281-0.539,0.414-0.852,0.305
	C4.097,8.071,3.894,7.657,4.019,7.243c0.133-0.391,0.547-0.625,0.961-0.492c0.336,0.133,0.539,0.438,0.516,0.75L6.3,7.782
	c0.258-0.594,0.82-1.031,1.5-1.109V5.845C7.487,5.767,7.253,5.462,7.253,5.126c0-0.414,0.336-0.75,0.75-0.75s0.75,0.336,0.75,0.75
	c0,0.336-0.234,0.641-0.547,0.719v0.828c0.68,0.078,1.242,0.516,1.5,1.109l0.805-0.281c-0.023-0.312,0.18-0.617,0.516-0.75
	c0.414-0.133,0.828,0.102,0.961,0.492c0.125,0.414-0.109,0.828-0.492,0.953c-0.312,0.109-0.672-0.023-0.852-0.305L9.839,8.149
	C9.862,8.274,9.894,8.407,9.894,8.532z"/>
</svg>
