<?xml version="1.0" encoding="utf-8"?>
<!-- Generator: Adobe Illustrator 16.0.0, SVG Export Plug-In . SVG Version: 6.00 Build 0)  -->
<!DOCTYPE svg PUBLIC "-//W3C//DTD SVG 1.1//EN" "http://www.w3.org/Graphics/SVG/1.1/DTD/svg11.dtd">
<svg version="1.1" id="Calque_1" xmlns="http://www.w3.org/2000/svg" xmlns:xlink="http://www.w3.org/1999/xlink" x="0px" y="0px"
	 width="16px" height="16px" viewBox="0 0 16 16" enable-background="new 0 0 16 16" xml:space="preserve">
<path id="recent" d="M12.993,9.549c0-3.407-0.31-6.762-3.561-7.484c0.052-0.181,0.103-0.335,0.103-0.542
	C9.535,0.697,8.839,0,7.987,0C7.161,0,6.465,0.697,6.465,1.522c0,0.207,0.025,0.361,0.077,0.542C3.6,2.71,2.929,5.549,2.929,9.549
	c0,1.264-0.954,2.864-2.193,3.741c-0.104,0.052-0.154,0.155-0.154,0.259c0,0.103,0.051,0.206,0.154,0.283
	c0.026,0.026,0.026,0.026,0.026,0.052c4.671-2.555,9.78-2.555,14.426,0c0.025,0,0.051-0.025,0.077-0.052
	c0.104-0.077,0.154-0.181,0.154-0.283c0-0.104-0.051-0.207-0.154-0.259C14,12.387,12.993,10.762,12.993,9.549z M7.987,1.91
	c-0.181,0-0.388,0-0.568,0.025C7.316,1.832,7.29,1.678,7.29,1.522c0-0.387,0.31-0.696,0.697-0.696c0.387,0,0.723,0.31,0.723,0.696
	c0,0.155-0.052,0.31-0.129,0.413C8.4,1.91,8.193,1.91,7.987,1.91z M8.064,14.322c-1.084,0-1.936-0.696-1.936-1.548v-0.026
	c-1.6,0.207-3.174,0.723-4.723,1.522C2.852,15.2,4.71,16,7.987,16s5.109-0.8,6.58-1.703c-1.496-0.8-3.045-1.316-4.593-1.549
	C9.975,13.626,9.097,14.322,8.064,14.322z"/>
</svg>
