<?xml version="1.0" encoding="utf-8"?>
<!-- Generator: Adobe Illustrator 16.0.0, SVG Export Plug-In . SVG Version: 6.00 Build 0)  -->
<!DOCTYPE svg PUBLIC "-//W3C//DTD SVG 1.1//EN" "http://www.w3.org/Graphics/SVG/1.1/DTD/svg11.dtd">
<svg version="1.1" id="Calque_1" xmlns="http://www.w3.org/2000/svg" xmlns:xlink="http://www.w3.org/1999/xlink" x="0px" y="0px"
	 width="16px" height="16px" viewBox="0 0 16 16" enable-background="new 0 0 16 16" xml:space="preserve">
<path id="recent" d="M0,8c0,4.413,3.587,8,8,8s8-3.587,8-8s-3.587-8-8-8S0,3.587,0,8z M5.626,6.013c0,0.594-0.465,1.059-1.059,1.059
	C4,7.071,3.535,6.606,3.535,6.013C3.535,5.445,4,4.98,4.567,4.98C5.161,4.98,5.626,5.445,5.626,6.013z M12.413,6.013
	c0,0.594-0.465,1.059-1.032,1.059c-0.568,0-1.032-0.465-1.032-1.059c0-0.567,0.464-1.032,1.032-1.032
	C11.948,4.98,12.413,5.445,12.413,6.013z M3.535,10.245c0-0.077,0.026-0.155,0.104-0.181c0.052-0.052,0.129-0.077,0.206-0.052
	c1.007,0.31,2.529,0.49,4.155,0.49c1.6,0,3.123-0.181,4.155-0.49c0.077-0.025,0.154,0,0.206,0.052
	c0.052,0.025,0.077,0.104,0.077,0.181c-0.232,2.116-2.142,3.716-4.438,3.716S3.794,12.361,3.535,10.245z"/>
</svg>
