<?xml version="1.0" encoding="utf-8"?>
<!-- Generator: Adobe Illustrator 16.0.0, SVG Export Plug-In . SVG Version: 6.00 Build 0)  -->
<!DOCTYPE svg PUBLIC "-//W3C//DTD SVG 1.1//EN" "http://www.w3.org/Graphics/SVG/1.1/DTD/svg11.dtd">
<svg version="1.1" id="Calque_1" xmlns="http://www.w3.org/2000/svg" xmlns:xlink="http://www.w3.org/1999/xlink" x="0px" y="0px"
	 width="16px" height="16px" viewBox="0 0 16 16" enable-background="new 0 0 16 16" xml:space="preserve">
<path id="recent" d="M15.562,8.155c-0.026-0.259-0.207-0.517-0.465-0.62L14.22,7.097h0.412c0.311,0,0.568-0.232,0.594-0.516
	l0.155-1.162c0.025-0.154-0.026-0.283-0.129-0.412c-0.078-0.104-0.232-0.155-0.388-0.155h-1.109l-0.542-2.968
	c-0.104-0.438-0.516-0.8-0.98-0.8H3.768c-0.465,0-0.877,0.361-0.98,0.8L2.271,4.852H1.188c-0.13,0-0.284,0.052-0.388,0.155
	C0.697,5.136,0.671,5.265,0.671,5.419l0.155,1.162c0.051,0.283,0.31,0.516,0.593,0.516h0.388L0.903,7.535
	C0.646,7.639,0.465,7.896,0.438,8.181L0.31,10.916H0.206C0.077,10.916,0,10.993,0,11.123v1.729c0,0.129,0.077,0.232,0.206,0.232
	h1.136v1.522c0,0.181,0.155,0.31,0.31,0.31h2.22c0.129,0,0.284-0.129,0.284-0.31v-1.522h1.548v0.8c0,0.104,0.104,0.232,0.207,0.232
	h4.206c0.129,0,0.206-0.129,0.206-0.232v-0.8h1.549v1.522c0,0.181,0.129,0.31,0.31,0.31h2.193c0.181,0,0.336-0.129,0.336-0.31
	v-1.522h1.058c0.129,0,0.232-0.104,0.232-0.232v-1.729c0-0.13-0.104-0.207-0.232-0.207H15.69L15.562,8.155z M3.252,2.271h9.496
	l0.903,4.801H2.374L3.252,2.271z M2.71,9.368c0,0.593-0.826,1.109-1.884,1.161l0.129-2.323C1.936,8.284,2.71,8.774,2.71,9.368z
	 M13.29,9.368c0-0.594,0.774-1.084,1.781-1.162l0.129,2.323C14.116,10.478,13.29,9.961,13.29,9.368z M3.277,8.852V8.697
	c0-0.13,0.129-0.284,0.31-0.284h8.749c0.154,0,0.283,0.154,0.283,0.284v0.154H3.277z M3.277,9.574V9.161h9.342v0.413H3.277z
	 M12.619,9.884v0.077c0,0.181-0.129,0.31-0.283,0.31H3.587c-0.181,0-0.31-0.129-0.31-0.31V9.884H12.619z M15.562,12.646h-5.239
	v-0.62c0-0.129-0.077-0.206-0.206-0.206H5.91c-0.104,0-0.207,0.077-0.207,0.206v0.62H0.438v-1.291h15.123V12.646z M9.91,13.651
	H6.142v-1.394H9.91V13.651z"/>
</svg>
