<?xml version="1.0" encoding="utf-8"?>
<!-- Generator: Adobe Illustrator 16.0.0, SVG Export Plug-In . SVG Version: 6.00 Build 0)  -->
<!DOCTYPE svg PUBLIC "-//W3C//DTD SVG 1.1//EN" "http://www.w3.org/Graphics/SVG/1.1/DTD/svg11.dtd">
<svg version="1.1" id="Calque_1" xmlns="http://www.w3.org/2000/svg" xmlns:xlink="http://www.w3.org/1999/xlink" x="0px" y="0px"
	 width="16px" height="16px" viewBox="0 0 16 16" enable-background="new 0 0 16 16" xml:space="preserve">
<path id="recent" d="M0,8c0,4.413,3.587,8,8,8s8-3.587,8-8s-3.587-8-8-8S0,3.587,0,8z M0.852,8c0-3.948,3.2-7.174,7.148-7.174
	S15.175,4.052,15.175,8S11.948,15.174,8,15.174S0.852,11.948,0.852,8z M8.542,2.039C8.542,1.755,8.31,1.522,8,1.522
	c-0.284,0-0.516,0.232-0.516,0.516V8c0,0.31,0.232,0.542,0.516,0.542h4.181c0.31,0,0.542-0.232,0.542-0.542
	s-0.232-0.542-0.542-0.542H8.542V2.039z"/>
</svg>
