<?xml version="1.0" encoding="utf-8"?>
<!-- Generator: Adobe Illustrator 16.0.0, SVG Export Plug-In . SVG Version: 6.00 Build 0)  -->
<!DOCTYPE svg PUBLIC "-//W3C//DTD SVG 1.1//EN" "http://www.w3.org/Graphics/SVG/1.1/DTD/svg11.dtd">
<svg version="1.1" id="Calque_1" xmlns="http://www.w3.org/2000/svg" xmlns:xlink="http://www.w3.org/1999/xlink" x="0px" y="0px"
	 width="16px" height="16px" viewBox="0 0 16 16" enable-background="new 0 0 16 16" xml:space="preserve">
<path id="recent" d="M7.69,7.69V0H0.619C0.284,0,0,0.284,0,0.619V7.69H7.69z M8.335,7.69H16V0.619C16,0.284,15.716,0,15.381,0H8.335
	V7.69z M14.22,3.923C14.142,4,14.039,4,13.936,4L12,3.458v1.884c0.052,0.258,0,0.517-0.129,0.723
	c-0.181,0.232-0.413,0.387-0.723,0.517c-0.129,0.025-0.284,0.051-0.438,0.051c-0.49,0-0.903-0.258-1.032-0.645
	C9.6,5.729,9.651,5.445,9.832,5.188c0.155-0.232,0.413-0.439,0.697-0.517c0.154-0.052,0.31-0.077,0.464-0.077
	c0.13,0,0.259,0.025,0.388,0.052V1.522c0-0.104,0.025-0.206,0.129-0.258c0.077-0.077,0.181-0.104,0.258-0.077l2.322,0.671
	c0.155,0.052,0.259,0.181,0.259,0.31v1.496C14.349,3.742,14.297,3.871,14.22,3.923z M6.039,1.987c0,0.206-0.181,0.387-0.387,0.387
	H1.884c-0.232,0-0.387-0.181-0.387-0.387C1.497,1.78,1.652,1.6,1.884,1.6h3.768C5.858,1.6,6.039,1.78,6.039,1.987z M6.039,3.51
	c0,0.181-0.181,0.361-0.387,0.361H4.129v2.09c0,0.232-0.155,0.388-0.387,0.388c-0.206,0-0.361-0.155-0.361-0.388v-2.09H1.884
	c-0.232,0-0.387-0.181-0.387-0.361c0-0.232,0.155-0.387,0.387-0.387h3.768C5.858,3.123,6.039,3.277,6.039,3.51z M0,15.381
	C0,15.717,0.284,16,0.619,16H7.69V8.31H0V15.381z M8.335,16h7.045C15.716,16,16,15.717,16,15.381V8.31H8.335V16z M2.787,12.129
	l0.026-0.025C2.761,12.078,2.735,12.052,2.709,12c-0.464-0.413-0.645-0.98-0.438-1.496c0.181-0.491,0.645-0.826,1.161-0.826
	c0.465,0,1.058,0.31,1.265,0.852c0.155,0.387,0.026,0.852-0.387,1.238C4.181,11.896,4.052,12,3.948,12.129l0.774,0.697
	c0.103-0.155,0.181-0.336,0.258-0.49c0.104-0.207,0.335-0.284,0.516-0.182c0.207,0.104,0.258,0.336,0.181,0.517
	c-0.103,0.206-0.206,0.438-0.361,0.646c0.207,0.154,0.413,0.31,0.646,0.465c0.155,0.129,0.207,0.361,0.077,0.541
	c-0.103,0.155-0.361,0.207-0.542,0.104c-0.206-0.181-0.438-0.336-0.645-0.49c-0.387,0.412-0.929,0.697-1.626,0.697
	c-0.929,0-1.238-0.517-1.342-0.723c-0.155-0.388-0.077-0.826,0.232-1.162C2.271,12.568,2.503,12.361,2.787,12.129z M11.819,10.865
	c0,0.619-0.49,1.083-1.084,1.083s-1.084-0.464-1.084-1.083c0-0.594,0.49-1.084,1.084-1.084S11.819,10.271,11.819,10.865z
	 M10.271,14.478c-0.103,0-0.181-0.026-0.258-0.077c-0.154-0.155-0.181-0.388-0.025-0.543l3.483-3.922
	c0.155-0.154,0.388-0.154,0.542-0.025c0.181,0.129,0.181,0.361,0.052,0.541l-3.535,3.896C10.478,14.451,10.374,14.478,10.271,14.478
	z M11.174,10.865c0-0.232-0.206-0.439-0.438-0.439s-0.438,0.207-0.438,0.439c0,0.258,0.206,0.438,0.438,0.438
	S11.174,11.123,11.174,10.865z M3.793,11.226c0.181-0.181,0.232-0.335,0.181-0.438c-0.077-0.181-0.335-0.336-0.542-0.336
	c-0.181,0-0.361,0.129-0.438,0.311c-0.104,0.232,0,0.49,0.232,0.696l0.155,0.129L3.793,11.226z M12.181,13.394
	c0-0.594,0.49-1.084,1.084-1.084s1.084,0.49,1.084,1.084c0,0.619-0.49,1.084-1.084,1.084S12.181,14.013,12.181,13.394z
	 M4.258,13.445c-0.31-0.284-0.62-0.568-0.877-0.826l-0.078,0.078c-0.284,0.232-0.49,0.412-0.645,0.567
	c-0.078,0.103-0.129,0.231-0.078,0.335c0.078,0.155,0.31,0.258,0.645,0.258C3.639,13.857,3.948,13.729,4.258,13.445z M12.852,13.394
	c0,0.259,0.181,0.464,0.413,0.464s0.438-0.205,0.438-0.464c0-0.232-0.206-0.413-0.438-0.413S12.852,13.161,12.852,13.394z"/>
</svg>
