<?xml version="1.0" encoding="utf-8"?>
<!-- Generator: Adobe Illustrator 16.0.0, SVG Export Plug-In . SVG Version: 6.00 Build 0)  -->
<!DOCTYPE svg PUBLIC "-//W3C//DTD SVG 1.1//EN" "http://www.w3.org/Graphics/SVG/1.1/DTD/svg11.dtd">
<svg version="1.1" id="Calque_1" xmlns="http://www.w3.org/2000/svg" xmlns:xlink="http://www.w3.org/1999/xlink" x="0px" y="0px"
	 width="512px" height="512px" viewBox="0 0 512 512" enable-background="new 0 0 512 512" xml:space="preserve">
<g>
	<g>
		<g>
			<g>
				<path id="SVGID_1_" fill="#FAC231" d="M256.017,60.333C31.332,60.333,26,312.229,26,362.113
					c0,49.815,102.963,90.23,230.017,90.23c127.053,0,229.983-40.415,229.983-90.23C486,312.229,480.7,60.333,256.017,60.333z"/>
			</g>
		</g>
		<path fill="#302F2F" d="M120.8,161.7c0.471-1.125,12.372-27.61,40.597-28.19h0.183c28.333-0.508,41.141,25.649,41.722,26.812
			c2.394,5.006,0.361,11.064-4.607,13.495c-1.308,0.691-2.759,1.017-4.137,1.053c-3.701,0.072-7.401-1.995-9.143-5.658
			c-0.398-0.727-8.018-15.709-23.475-15.384h-0.072c-15.492,0.326-22.603,15.564-22.856,16.18c-2.322,5.08-8.236,7.329-13.241,5.044
			C120.837,172.694,118.55,166.816,120.8,161.7z"/>
		<path fill="#ED6D31" d="M289.215,309.869c-32.184,20.605-79.528,19.772-114.14,7.801c-18.43-6.604-44.952-24.454-56.197-52.57
			c-4.897-12.191-5.66-32.616-0.834-44.407c3.771-9.397,12.588-13.171,21.479-13.823c13.639-0.979,30.256,11.5,43.862,16.144
			c25.649,8.817,50.139,8.6,79.96,5.008c19.157-3.266,38.676-9.615,55.187,0.035c9.828,5.914,11.861,18.612,10.519,29.497
			C327.019,273.844,313.846,294.088,289.215,309.869z"/>
		<path fill="#302F2F" d="M335.688,205.745c-0.364,0.036-0.726,0.036-1.123,0.073c-4.973,0.107-9.396-3.628-10.086-8.852
			c-0.109-0.727-3.086-20.173-20.391-25.614c-17.668-5.479-31.309,9.396-31.455,9.542c-3.737,4.171-10.047,4.426-14.114,0.688
			c-4.025-3.773-4.352-10.195-0.617-14.294c0.942-1.052,22.424-24.562,52.101-15.309c29.715,9.324,34.141,41.068,34.32,42.447
			C345.01,199.904,341.131,205.019,335.688,205.745z"/>
	</g>
	<g>
		<g>
			<path fill="#FFFFFF" d="M430.017,270.18c-1.597,6.855-4.97,16.397-12.155,19.734c-7.107,3.302-15.164,1.383-20.932-3.483
				c-7.146-5.948-8.781-14.222-9.396-22.965c-0.437-5.151-0.326-10.193,0.035-14.257c0.979-10.558-1.162-20.934-0.432-31.237
				c0.216-3.012,1.448-6.822,4.967-5.95c2.905,0.689,6.784,3.663,9.215,5.332C417.501,228.746,434.988,249.135,430.017,270.18z"/>
		</g>
	</g>
</g>
</svg>
